<svg xmlns="http://www.w3.org/2000/svg" xmlns:xlink="http://www.w3.org/1999/xlink" width="109" height="109" viewBox="0 0 109 109">
    <defs>
        <path id="a" d="M0 38.491V.01h38.482v38.482z"/>
        <path id="c" d="M0 38.491V.01h38.482v38.482z"/>
        <path id="e" d="M0 38.491V.01h38.482v38.482z"/>
    </defs>
    <g fill="none" fill-rule="evenodd" transform="translate(14.3 11.5)">
        <g transform="translate(37.93 3.899)">
            <mask id="b" fill="#fff">
                <use xlink:href="#a"/>
            </mask>
            <path fill="#EED450" d="M38.482 19.221c.016 10.626-8.585 19.254-19.212 19.27C8.644 38.507.016 29.906 0 19.28-.016 8.653 8.585.026 19.212.01c10.626-.017 19.254 8.584 19.27 19.211" mask="url(#b)"/>
        </g>
        <path stroke="#E8BC45" stroke-dasharray="3.232178485393524,2.424417990446091" stroke-linecap="round" stroke-linejoin="round" stroke-width="1.554" d="M74.723 23.17c0 9.678-7.845 17.523-17.522 17.523S39.68 32.848 39.68 23.17c0-9.678 7.845-17.523 17.522-17.523s17.522 7.845 17.522 17.523z"/>
        <path fill="#C18E12" d="M72.726 22.61c0 8.883-7.202 16.085-16.086 16.085-8.884 0-16.086-7.202-16.086-16.086 0-8.884 7.202-16.086 16.086-16.086 8.884 0 16.086 7.202 16.086 16.086"/>
        <path fill="#D59A14" d="M73.306 21.841c.014.259.02.52.02.781 0 8.408-6.944 15.224-15.511 15.224S42.304 31.03 42.304 22.622c0-8.408 6.944-15.224 15.511-15.224 8.3 0 15.077 6.398 15.491 14.443"/>
        <path fill="#F6CF5F" d="M51.052 16.105s0-.834.847-.834h7.878c4.6 0 6.211 3.314 6.211 5.694 0 4.036-2.75 5.926-6.638 5.926h-2.235s-.847 0-.847.834v3.373s0 .834-.848.834H51.9s-.847 0-.847-.834V16.105zm5.216 5.986s0 .834.847.834h1.168c1.351 0 2.774-.094 2.774-1.774 0-1.516-1.186-1.61-2.466-1.61h-1.476s-.847 0-.847.834v1.716z"/>
        <g transform="translate(31.806 .4)">
            <mask id="d" fill="#fff">
                <use xlink:href="#c"/>
            </mask>
            <path fill="#EED450" d="M38.482 19.221c.016 10.626-8.585 19.254-19.212 19.27C8.644 38.507.016 29.906 0 19.28-.016 8.653 8.585.026 19.212.01c10.626-.017 19.254 8.584 19.27 19.211" mask="url(#d)"/>
        </g>
        <path stroke="#E8BC45" stroke-dasharray="3.232178485393524,2.424417990446091" stroke-linecap="round" stroke-linejoin="round" stroke-width="1.554" d="M68.84 19.791c0 9.743-7.9 17.642-17.643 17.642S33.556 29.534 33.556 19.79c0-9.743 7.898-17.642 17.641-17.642 9.744 0 17.642 7.899 17.642 17.642z"/>
        <path fill="#C18E12" d="M66.506 19.062c0 8.858-7.18 16.038-16.037 16.038-8.858 0-16.039-7.18-16.039-16.038S41.61 3.024 50.47 3.024c8.857 0 16.037 7.18 16.037 16.038"/>
        <path fill="#D59A14" d="M66.078 18.201c.013.256.02.514.02.773 0 8.327-6.893 15.076-15.396 15.076-8.504 0-15.397-6.75-15.397-15.076 0-8.325 6.893-15.075 15.397-15.075 8.238 0 14.965 6.336 15.376 14.302"/>
        <path fill="#FFF" d="M61.987.4c-.299 4.224-.904 4.806-4.812 5.132 3.908.325 4.513.908 4.812 5.132.298-4.224.903-4.807 4.811-5.132-3.908-.326-4.513-.908-4.811-5.132"/>
        <path fill="#F6CF5F" d="M44.928 12.607s0-.835.837-.835h7.782c4.543 0 6.136 3.317 6.136 5.7 0 4.041-2.717 5.933-6.558 5.933h-2.208s-.837 0-.837.835v3.377s0 .835-.836.835h-3.48s-.836 0-.836-.835v-15.01zM50.08 18.6s0 .834.837.834h1.154c1.335 0 2.74-.093 2.74-1.775 0-1.519-1.17-1.612-2.435-1.612h-1.459s-.837 0-.837.835V18.6z"/>
        <g transform="translate(9.936 11.772)">
            <mask id="f" fill="#fff">
                <use xlink:href="#e"/>
            </mask>
            <path fill="#EED450" d="M38.482 19.221c.016 10.626-8.585 19.254-19.212 19.27C8.644 38.507.016 29.906 0 19.28-.016 8.653 8.585.026 19.212.01c10.626-.017 19.254 8.584 19.27 19.211" mask="url(#f)"/>
        </g>
        <path stroke="#E8BC45" stroke-dasharray="3.232178485393524,2.424417990446091" stroke-linecap="round" stroke-linejoin="round" stroke-width="1.554" d="M46.73 31.044c0 9.677-7.845 17.522-17.522 17.522-9.678 0-17.522-7.845-17.522-17.522s7.844-17.522 17.522-17.522c9.677 0 17.522 7.845 17.522 17.522z"/>
        <path fill="#C18E12" d="M44.732 30.482c0 8.884-7.202 16.086-16.086 16.086-8.884 0-16.086-7.202-16.086-16.086 0-8.884 7.202-16.086 16.086-16.086 8.884 0 16.086 7.202 16.086 16.086"/>
        <path fill="#D59A14" d="M45.313 29.715c.013.258.02.518.02.78 0 8.408-6.945 15.224-15.512 15.224-8.566 0-15.511-6.816-15.511-15.224 0-8.408 6.945-15.224 15.511-15.224 8.3 0 15.078 6.398 15.492 14.444"/>
        <path fill="#FFF" d="M40.188 11.772c-.303 4.256-.916 4.843-4.883 5.17 3.967.328 4.58.915 4.883 5.17.304-4.255.917-4.842 4.884-5.17-3.967-.327-4.58-.914-4.884-5.17"/>
        <path fill="#F6CF5F" d="M23.058 23.978s0-.834.847-.834h7.878c4.6 0 6.212 3.314 6.212 5.694 0 4.037-2.75 5.927-6.639 5.927h-2.235s-.847 0-.847.833v3.373s0 .834-.847.834h-3.522s-.847 0-.847-.834V23.978zm5.216 5.986s0 .834.847.834h1.168c1.352 0 2.774-.094 2.774-1.774 0-1.516-1.185-1.61-2.466-1.61h-1.476s-.847 0-.847.834v1.716z"/>
        <rect width="80.482" height="51.613" x="1.188" y="31.892" fill="#E7008C" rx="3.79"/>
        <path stroke="#FFF" stroke-dasharray="3.158027851581574,3.158027851581574,3.158027851581574" stroke-linecap="square" stroke-width="1.579" d="M79.045 38.016H1.188M80.795 74.758H2.938"/>
    </g>
</svg>
