<svg xmlns="http://www.w3.org/2000/svg" xmlns:xlink="http://www.w3.org/1999/xlink" width="109" height="109" viewBox="0 0 109 109">
    <defs>
        <path id="a" d="M.67.002v.784H.234V.002H.67z"/>
        <path id="c" d="M.033.274H24.77v21.02H.033z"/>
    </defs>
    <g fill="none" fill-rule="evenodd">
        <path fill="#E7008C" d="M34.338 47.56h5.81l22.488 7.655H43.712z"/>
        <path fill="#F8E71C" d="M96.513 55.49c-4.04-1.671-9.568-2.704-15.672-2.704-9.416 0-46.93 2.24-53.978-.666-4.306-.11-8.126.444-12.514.974 1.417 8.747 9.534 18.73 31.156 18.73h35.336c12.395 0 22.434-4.262 22.434-9.515 0-2.67-2.59-5.079-6.762-6.82"/>
        <path fill="#E6E7E8" d="M102.26 59.463l.142.23-.143-.23"/>
        <path fill="#E6E7E8" d="M96.513 55.49c-4.04-1.671-9.568-2.704-15.672-2.704-8.219 0-37.839 1.705-49.927.207.12.413.265.81.431 1.19 12.351 1.405 41.375-.262 49.496-.262 6.104 0 11.545 1.018 15.58 2.698 3.902 1.626 4.445 2.089 5.67 3.134l.169-.29c-1.442-2.313-5.747-3.973-5.747-3.973M102.402 59.692l.438.702-.438-.702"/>
        <g transform="translate(102.605 60.392)">
            <mask id="b" fill="#fff">
                <use xlink:href="#a"/>
            </mask>
            <path fill="#E6E7E8" d="M.234.002c.083.133.067.108 0 0" mask="url(#b)"/>
        </g>
        <path fill="#CBC034" d="M102.26 59.463c-2.536 4.499-8.238 6.678-21.42 6.678H45.505c-1.549 0-3.012-.067-4.421-.173-1.263 1.906-2.745 3.59-4.333 5.168 2.627.44 5.529.688 8.754.688H80.84c12.391 0 22.435-4.26 22.435-9.52 0-.99-.355-1.943-1.016-2.841"/>
        <path fill="#E7008C" d="M9.811 78.835l28.326-16.388h25.52L19.441 78.835z"/>
        <path fill="#00B9EF" d="M92.454 56.583c1.44.173 3.742.628 5.665 1.832.842.528.837 1.783.01 2.336-.995.665-2.23 1.233-3.347 1.67-1.516.595-3.172-.443-3.338-2.08l-.252-2.497a1.141 1.141 0 0 1 1.262-1.26"/>
        <path fill="#FFF" d="M81.914 58.654c0 .969-.778 1.756-1.735 1.756a1.745 1.745 0 0 1-1.733-1.756c0-.97.776-1.756 1.733-1.756.957 0 1.735.785 1.735 1.756M75.516 58.654c0 .969-.777 1.756-1.734 1.756a1.745 1.745 0 0 1-1.733-1.756c0-.97.776-1.756 1.733-1.756.957 0 1.734.785 1.734 1.756M69.118 58.654c0 .969-.777 1.756-1.734 1.756a1.745 1.745 0 0 1-1.734-1.756c0-.97.777-1.756 1.734-1.756s1.734.785 1.734 1.756M62.72 58.654c0 .968-.777 1.756-1.734 1.756a1.746 1.746 0 0 1-1.733-1.756c0-.972.776-1.757 1.733-1.757.957 0 1.734.785 1.734 1.757M56.323 58.654c0 .969-.777 1.756-1.735 1.756a1.744 1.744 0 0 1-1.732-1.756c0-.97.774-1.756 1.732-1.756s1.735.785 1.735 1.756M49.925 58.654c0 .969-.777 1.756-1.734 1.756a1.744 1.744 0 0 1-1.733-1.756c0-.97.775-1.756 1.733-1.756.957 0 1.734.785 1.734 1.756M43.528 58.654c0 .969-.777 1.756-1.734 1.756a1.744 1.744 0 0 1-1.734-1.756c0-.97.775-1.756 1.734-1.756.957 0 1.734.785 1.734 1.756"/>
        <path fill="#555" d="M63.658 62.447l-20.986 9.378h-4.319z"/>
        <g transform="translate(9.42 34.542)">
            <mask id="d" fill="#fff">
                <use xlink:href="#c"/>
            </mask>
            <path fill="#EDCD4D" d="M24.77 19.988l-12.606-6.387L2.61.274.033.796l5.54 20.498s9.415-.52 19.197-1.306" mask="url(#d)"/>
        </g>
        <path fill="#464646" d="M28.264 61.45l-15.977 3.264H3.655l14.302-3.917z"/>
    </g>
</svg>
