<svg xmlns="http://www.w3.org/2000/svg" width="109" height="109" viewBox="0 0 109 109">
    <g fill="none" fill-rule="evenodd">
        <path fill="#00B9EF" d="M70.693 85.173l13.265-21.23c-3.012-1.881-3.87-5.856-1.964-8.906L29.352 22.143c-1.906 3.05-5.854 4.02-9.081 2.004L7.006 45.377c3.227 2.016 4.084 5.99 2.179 9.04l52.642 32.895c1.906-3.05 5.854-4.021 8.866-2.14"/>
        <path stroke="#FFF" stroke-width=".823" d="M12.304 54.124c1.055-3.22.047-7.211-2.314-9.644l11.164-17.866c3.222 1.055 6.593 1.264 9.025-1.097l49.28 30.794c-1.056 3.22.037 5.802 1.7 7.798L69.995 81.975c-2.523-.619-5.98.582-8.412 2.943l-49.28-30.794z"/>
        <text fill="#E7008C" font-family="Arial-Black, Arial Black" font-size="13.164" font-weight="700" transform="rotate(32 13.277 49.719)">
            <tspan x="16.35" y="41.234">TICKET</tspan>
        </text>
        <g stroke="#000" stroke-width=".823">
            <path d="M28.111 34.62l44.48 27.795M19.348 48.645l44.48 27.794"/>
        </g>
        <path fill="#00B9EF" d="M78.216 85.173l13.266-21.23c-3.012-1.881-3.87-5.856-1.965-8.906L36.875 22.143c-1.906 3.05-5.854 4.02-9.08 2.004l-13.266 21.23c3.227 2.016 4.085 5.99 2.179 9.04L69.35 87.312c1.906-3.05 5.854-4.021 8.866-2.14"/>
        <path stroke="#FFF" stroke-width=".823" d="M19.827 54.124c1.055-3.22.047-7.211-2.313-9.644l11.164-17.866c3.22 1.055 6.592 1.264 9.024-1.097l49.28 30.794c-1.056 3.22.038 5.802 1.7 7.798L77.52 81.975c-2.524-.619-5.98.582-8.413 2.943l-49.28-30.794z"/>
        <text fill="#E7008C" font-family="Arial-Black, Arial Black" font-size="13.164" font-weight="700" transform="rotate(32 20.8 49.719)">
            <tspan x="23.873" y="41.234">TICKET</tspan>
        </text>
        <g stroke="#000" stroke-width=".823">
            <path d="M35.11 34.62l44.48 27.795M26.346 48.645l44.48 27.794"/>
        </g>
        <path fill="#00B9EF" d="M83.465 85.173l13.265-21.23c-3.012-1.881-3.87-5.856-1.964-8.906L42.124 22.143c-1.906 3.05-5.854 4.02-9.081 2.004l-13.265 21.23c3.227 2.016 4.084 5.99 2.179 9.04l52.642 32.895c1.906-3.05 5.854-4.021 8.866-2.14"/>
        <path stroke="#FFF" stroke-width=".823" d="M25.076 54.124c1.055-3.22.047-7.211-2.314-9.644l11.164-17.866c3.222 1.055 6.593 1.264 9.025-1.097l49.28 30.794c-1.056 3.22.037 5.802 1.7 7.798L82.767 81.975c-2.523-.619-5.98.582-8.412 2.943l-49.28-30.794z"/>
        <text fill="#E7008C" font-family="Arial-Black, Arial Black" font-size="13.164" font-weight="700" transform="rotate(32 26.049 49.719)">
            <tspan x="29.122" y="41.234">TICKET</tspan>
        </text>
        <g stroke="#000" stroke-width=".823">
            <path d="M41.233 34.62l44.48 27.795M32.47 48.645l44.48 27.794"/>
        </g>
        <path fill="#00B9EF" d="M91.552 86.315l13.83-22.133c-3.012-1.882-3.804-5.961-1.818-9.141L50.922 22.146c-1.987 3.18-6 4.256-9.228 2.24l-13.83 22.132c3.227 2.017 4.02 6.096 2.033 9.276l52.642 32.895c1.987-3.18 6-4.256 9.013-2.374"/>
        <path stroke="#FFF" stroke-width=".823" d="M33.058 55.433c1.13-3.34.186-7.433-2.156-9.895l11.64-18.627c3.239 1.026 6.646 1.177 9.153-1.302l49.28 30.793c-1.13 3.34-.074 5.978 1.571 8.004L90.907 83.033c-2.542-.59-6.062.714-8.57 3.193L33.059 55.433z"/>
        <text fill="#FFF" font-family="Arial-Black, Arial Black" font-size="13.164" font-weight="700" transform="rotate(32 34.858 50.597)">
            <tspan x="37.869" y="42.112">TICKET</tspan>
        </text>
        <g stroke="#FFF" stroke-width=".823">
            <path d="M49.559 35.513l44.48 27.794M40.422 50.134l44.48 27.795"/>
        </g>
        <g>
            <path fill="#00B9EF" d="M79.056 86.732V61.7c-3.552 0-6.385-2.916-6.385-6.512H10.596c0 3.596-2.834 6.512-6.639 6.512v25.033c3.805 0 6.639 2.916 6.639 6.512h62.075c0-3.596 2.833-6.512 6.385-6.512"/>
            <path stroke="#FFF" stroke-width=".823" d="M13.086 91.343c-.812-3.29-3.781-6.14-7.072-6.953V63.323c3.29-.812 6.26-2.421 7.072-5.712h58.11c.811 3.29 3.106 4.9 5.574 5.712V84.39c-2.468.812-4.763 3.662-5.575 6.953H13.086z"/>
            <text fill="#FFF" font-family="Arial-Black, Arial Black" font-size="13.164" font-weight="700" transform="translate(3.59 55.089)">
                <tspan x="10.526" y="22.578">TICKET</tspan>
            </text>
            <g stroke="#FFF" stroke-width=".823">
                <path d="M15.315 65.652h52.45M15.315 82.19h52.45"/>
            </g>
        </g>
    </g>
</svg>
