<svg xmlns="http://www.w3.org/2000/svg" width="219" height="356" viewBox="0 0 219 356">
    <g fill="none" fill-rule="evenodd">
        <path fill="#FFD89E" d="M23.537 221.283h6.133c6.786 0 12.288 5.502 12.288 12.288v54.308c0 6.786-5.502 12.288-12.288 12.288H17.405c-6.787 0-12.288-5.502-12.288-12.288v-48.175c0-10.173 8.247-18.42 18.42-18.42zM182.67 222.308h-6.132c-6.786 0-12.288 5.501-12.288 12.288v54.307c0 6.787 5.502 12.288 12.288 12.288h12.265c6.787 0 12.288-5.501 12.288-12.288v-48.175c0-10.173-8.247-18.42-18.42-18.42zM2.047 354.595l21.602-31.378h45.37l-8.712 31.378zM215.872 354.595l-21.603-31.378H148.9l8.713 31.378z"/>
        <path fill="#9E9E9E" d="M7.335 341.658L0 355.564h64.434l5.079-13.906zM211.589 341.658l7.335 13.906H154.49l-5.079-13.906z"/>
        <path fill="#FFD89E" d="M46.051 241.773c22.608 0 40.935 18.327 40.935 40.934v17.475c0 18.946-15.358 34.304-34.304 34.304H39.421c-18.946 0-34.304-15.358-34.304-34.304v-17.475c0-22.607 18.327-40.934 40.934-40.934zM160.157 241.773c-22.608 0-40.935 18.327-40.935 40.934v17.475c0 18.946 15.358 34.304 34.304 34.304h13.261c18.946 0 34.304-15.358 34.304-34.304v-17.475c0-22.607-18.327-40.934-40.934-40.934z"/>
        <path fill="#820751" d="M27.63 112.691H182.16v154.694H27.63z"/>
        <path fill="#B91F7D" d="M182.159 112.69v54.297h8.187z"/>
        <path fill="#B31672" d="M27.622 112.69l2.567 59.42-8.187-4.984z"/>
        <path fill="#E7008C" d="M22.002 164.426h167.832v144.449H22.002z"/>
        <path fill="#00B9EF" d="M84.15 154.181h2.26c.078-3.581 2.823-71.149-37.568-90.152H27.631l4.307 14.766c28.217 10.637 45.62 35.766 52.213 75.386z"/>
        <path fill="#C5067A" d="M68.971 147.78l1.14-.768c-1.224-1.9-23.667-38.162-50.752-34.35l-10.704 7.22 7.382 6.254c17.99-4.042 35.635 3.173 52.934 21.645zM144.912 143.17l-1.14-.768c1.224-1.9 23.667-38.162 50.752-34.35l10.704 7.22-7.381 6.254c-17.99-4.042-35.636 3.173-52.935 21.645z"/>
        <path fill="#00B9EF" d="M127.51 154.153h-2.258c-.078-3.582-2.824-71.15 37.567-90.153h21.211l-4.307 14.766c-28.217 10.637-45.62 35.766-52.212 75.387z"/>
        <path fill="#F8E71C" d="M145.83 23.05c-1.271 16.864-3.843 19.19-20.468 20.489 16.625 1.3 19.197 3.626 20.467 20.49 1.27-16.864 3.843-19.19 20.468-20.49-16.625-1.298-19.197-3.625-20.468-20.489M61.914 13.83c-1.049 13.702-3.17 15.592-16.886 16.647 13.716 1.056 15.837 2.946 16.886 16.648 1.048-13.702 3.17-15.592 16.885-16.648-13.715-1.055-15.837-2.945-16.885-16.647M20.979 75.81c-.572 9.908-1.73 11.274-9.21 12.037 7.48.763 8.638 2.13 9.21 12.038.572-9.908 1.73-11.275 9.21-12.038-7.48-.763-8.638-2.13-9.21-12.037M187.787 82.47c-.413 7.166-1.248 8.155-6.651 8.707 5.403.552 6.238 1.54 6.651 8.708.413-7.167 1.25-8.156 6.652-8.708-5.403-.552-6.239-1.54-6.652-8.708M178.577 11.525c9.352.73 10.798 2.04 11.513 11.525.715-9.486 2.161-10.794 11.513-11.525-9.352-.73-10.798-2.039-11.513-11.525-.715 9.486-2.161 10.795-11.513 11.525z"/>
        <path fill="#9013FE" d="M107.49 151.62L86.474 59.29l10.508-29.067 23.263 20.585z"/>
        <ellipse cx="36.074" cy="308.363" fill="#FFD89E" rx="24.305" ry="26.124"/>
        <ellipse cx="176.786" cy="306.314" fill="#FFD89E" rx="24.305" ry="26.124" transform="matrix(-1 0 0 1 353.572 0)"/>
        <path fill="#FFD89E" d="M32.748 217.074a20.93 20.93 0 0 1 10.745 18.285v49.153c0 5.934-4.81 10.745-10.745 10.745s-10.746-4.81-10.746-10.745v-61.124a7.228 7.228 0 0 1 10.746-6.314zM179.6 217.074a20.93 20.93 0 0 0-10.745 18.285v49.153c0 5.934 4.811 10.745 10.745 10.745 5.935 0 10.746-4.81 10.746-10.745v-61.124a7.228 7.228 0 0 0-10.746-6.314z"/>
        <path fill="#FFEFD8" d="M22.514 221.112v17.111c6.164 6.35 10.712 6.35 13.644 0 4.397-9.524-7.095-19.426-13.644-17.111zM189.616 221.624v17.112c-6.164 6.35-10.712 6.35-13.644 0-4.397-9.525 7.095-19.427 13.644-17.112z"/>
        <g fill="#FFF">
            <path d="M77.754 238.11l-1.669-2.08 6.73-5.732c-.905-1.29-2.206-1.937-3.9-1.937-1.376 0-2.632.646-3.772 1.937-1.164 1.316-1.747 2.702-1.747 4.16 0 1.417.583 2.721 1.747 3.915 1.14 1.21 2.396 1.817 3.772 1.817.9 0 1.768-.259 2.61-.782.81-.495 1.545-1.215 2.199-2.154l2.3 1.487c-.653 1.282-1.586 2.274-2.793 2.977-1.23.72-2.602 1.08-4.114 1.08-2.37 0-4.358-.73-5.96-2.187-1.698-1.558-2.545-3.652-2.545-6.28 0-2.274.797-4.34 2.4-6.202 1.582-1.83 3.523-2.748 5.825-2.748 1.718 0 3.267.48 4.638 1.431 1.372.953 2.372 2.252 3 3.902l-8.721 7.396zM93.359 239.08h8.702v2.693H90.708c-1.117 0-1.675-.372-1.675-1.114 0-.504.309-1.149.926-1.939l8.483-10.645h-8.694v-2.694h11.377c.546 0 .978.133 1.295.397.284.265.428.61.428 1.042 0 .265-.063.529-.182.79a3 3 0 0 1-.533.789l-8.774 10.68zM134.13 240.712a1.367 1.367 0 0 1-1.363-1.372c0-.758.61-1.372 1.363-1.372s1.363.614 1.363 1.372c0 .757-.61 1.372-1.363 1.372zm-2.102-3.424c0 .799-.274 1.412-.821 1.84-.647.484-1.787.704-3.418.663-.556-.072-1.284-.2-2.181-.385-.416-.13-.715-.352-.9-.664a1.463 1.463 0 0 1-.064-.962c.284-.77.855-1.048 1.71-.834 1.629.357 2.613.377 2.955.064.142-.142.215-.348.215-.62v-14.203h-4.388c-.4-.012-.714-.131-.942-.358-.229-.222-.342-.525-.342-.904 0-.335.113-.63.342-.883.228-.239.542-.358.942-.358h8.69c.386 0 .693.113.921.336.227.226.343.526.343.905 0 .338-.116.633-.343.884-.228.253-.535.378-.92.378h-1.799v15.101zm-8.564-12.334h-8.22c-.371 0-.664-.107-.878-.32-.213-.227-.32-.52-.32-.876 0-.327.107-.605.32-.834.227-.226.52-.342.877-.342h8.22c.357.015.64.114.855.299.214.229.321.52.321.877 0 .33-.107.607-.321.834-.214.243-.498.362-.854.362zm-8.561 1.703c0-.327.106-.605.32-.834.227-.227.52-.342.878-.342h6.25c.354.015.64.113.855.299.214.228.32.521.32.877 0 .33-.106.607-.32.833-.215.244-.501.363-.855.363h-6.25c-.371 0-.663-.107-.877-.32-.215-.228-.321-.52-.321-.876zm.32 2.065c.227-.227.52-.342.878-.342h6.25c.354.014.64.113.855.299.214.228.32.52.32.877 0 .329-.106.607-.32.833-.215.243-.501.363-.855.363h-6.25c-.371 0-.663-.107-.877-.322-.215-.226-.321-.518-.321-.874 0-.328.106-.606.32-.834zm8.763 9.175c0 .445-.173.84-.516 1.186-.317.33-.696.496-1.14.496h-6.132a1.687 1.687 0 0 1-1.098-.516c-.331-.375-.49-.762-.474-1.166v-4.89c0-.431.156-.82.474-1.167.3-.285.665-.43 1.098-.43h6.132c.471-.029.865.13 1.183.474.3.346.459.72.473 1.122v4.891zm-8.762-18.003c.226-.226.519-.342.877-.342h6.163c.357.014.643.114.857.298.212.23.32.522.32.878 0 .33-.108.607-.32.834-.214.242-.5.362-.857.362H116.1c-.371 0-.663-.107-.877-.321-.215-.227-.321-.52-.321-.875 0-.328.106-.605.32-.834zm8.344-6.622c-9.01.636-17.036 5.462-17.036 14.635 0 6.654 3.109 12.44 7.331 15.375l-.687 5.662 5.066-3.773c.26.05.52.087.783.114 17.41 1.814 25.213-9.808 25.213-18.979 0-9.172-7.724-13.95-20.67-13.034z"/>
            <path d="M120.845 233.782h-3.162a.804.804 0 0 0-.425.175.565.565 0 0 0-.127.414v2.182c0 .204.05.356.148.46a.572.572 0 0 0 .404.195h3.162c.183 0 .34-.064.467-.196a.86.86 0 0 0 .17-.459v-2.182a.526.526 0 0 0-.192-.437.646.646 0 0 0-.445-.152"/>
        </g>
    </g>
</svg>
