<svg xmlns="http://www.w3.org/2000/svg" width="61" height="61" viewBox="0 0 61 61">
    <path fill="#FFF" fill-rule="evenodd" d="M45 41.6v5.533A1.868 1.868 0 0 1 43.123 49H16.877C15.84 49 15 48.158 15 47.165v-33.33C15 12.82 15.834 12 16.877 12h26.246A1.87 1.87 0 0 1 45 13.855V41.6zM21.522 23.232h16.956c.72 0 1.305-.591 1.305-1.321s-.584-1.322-1.305-1.322H21.522c-.72 0-1.305.592-1.305 1.322 0 .73.584 1.321 1.305 1.321zm0 5.286h16.956c.72 0 1.305-.592 1.305-1.322 0-.73-.584-1.321-1.305-1.321H21.522c-.72 0-1.305.592-1.305 1.321 0 .73.584 1.322 1.305 1.322zm0 6.607h10.435c.72 0 1.304-.592 1.304-1.321 0-.73-.584-1.322-1.304-1.322H21.522c-.72 0-1.305.592-1.305 1.322 0 .73.584 1.321 1.305 1.321z"/>
</svg>
