<svg xmlns="http://www.w3.org/2000/svg" width="20" height="20" viewBox="0 0 20 20">
    <g fill="none" fill-rule="evenodd">
        <rect width="15" height="15" x="2.5" y="2.5" fill="#FFF" rx="7.5"/>
        <path fill="#F222CE" d="M7.5 7.042s0-.375.378-.375h3.516c2.053 0 2.773 1.491 2.773 2.563 0 1.817-1.228 2.668-2.963 2.668h-.998s-.378 0-.378.375v1.518s0 .376-.378.376H7.878s-.378 0-.378-.376V7.042zm2.328 2.695s0 .375.378.375h.522c.603 0 1.238-.042 1.238-.798 0-.683-.53-.725-1.101-.725h-.659s-.378 0-.378.375v.773z"/>
    </g>
</svg>
