<svg xmlns="http://www.w3.org/2000/svg" width="50" height="42" viewBox="0 0 50 42">
    <path fill="#C4C4C4" fill-rule="evenodd" d="M33.88 32.94l-2.64-10.2 8.16-6.78-10.5-.6L25 5.52l-3.84 9.84-10.68.6 8.34 6.78-2.7 10.2L25 27.18l8.88 5.76zM45.04 21c0 1.36.48 2.54 1.44 3.54s2.12 1.5 3.48 1.5V36c0 1.36-.48 2.54-1.44 3.54s-2.12 1.5-3.48 1.5H4.96c-1.36 0-2.52-.5-3.48-1.5S.04 37.36.04 36v-9.96c1.4 0 2.57-.5 3.51-1.5S4.96 22.36 4.96 21c0-1.36-.48-2.54-1.44-3.54s-2.12-1.5-3.48-1.5V6c0-1.36.48-2.54 1.44-3.54S3.6.96 4.96.96h40.08c1.36 0 2.52.5 3.48 1.5S49.96 4.64 49.96 6v9.96c-1.36 0-2.52.5-3.48 1.5s-1.44 2.18-1.44 3.54z"/>
</svg>
