<svg xmlns="http://www.w3.org/2000/svg" width="48" height="50" viewBox="0 0 48 50">
    <path fill="#FFF" fill-rule="evenodd" d="M37.165 18.153l3.292 3.308c.923.93.454 1.73.154 2.08L22.749 41.356c-1.236 1.233-2.226.34-2.36.208l-3.326-3.344c-.753-.757-.127-1.922-.129-1.922a3.302 3.302 0 0 0-.706-3.588c-1.013-1.019-2.523-1.222-3.834-.603-1.03.417-1.56-.16-1.56-.16l-3.478-3.495s-.919-.888.195-2l17.99-17.944c.216-.207 1.097-.95 1.909-.133l3.183 3.2c.182.19.795.941.354 2.117a3.3 3.3 0 0 0 .695 3.608 3.285 3.285 0 0 0 3.594.715s1.146-.61 1.89.138zM20.03 22.12l3.017 2.913-2.898 3 .954.923 2.899-3.001 3.016 2.913.952-.986-3.017-2.913 2.898-3-.954-.923-2.899 3.001-3.016-2.913-.952.986z"/>
</svg>
