<svg xmlns="http://www.w3.org/2000/svg" width="48" height="48" viewBox="0 0 48 48">
    <g fill="none" fill-rule="evenodd" stroke="#FFF" stroke-opacity=".8" stroke-width="1.5">
        <circle cx="24" cy="24" r="19"/>
        <path d="M24.527 20.75c-.876 0-1.648-.284-2.282-.843-.665-.588-.995-1.413-.995-2.416 0-.93.339-1.727 1.001-2.34a3.273 3.273 0 0 1 2.276-.901c.826 0 1.572.276 2.207.815.68.576 1.016 1.406 1.016 2.426 0 .988-.325 1.807-.979 2.4-.627.569-1.387.859-2.244.859z"/>
        <rect width="5.5" height="9.5" x="21.75" y="24.75" rx="2.75"/>
    </g>
</svg>
