<svg xmlns="http://www.w3.org/2000/svg" width="43" height="43" viewBox="0 0 43 43">
    <g fill="none" fill-rule="evenodd">
        <path stroke="#FFF" d="M8.293 29.213c1.623-1.308 3.942-1.28 5.377.156 1.435 1.435 1.464 3.755.156 5.377l3.719 3.72a1.302 1.302 0 0 0 1.84 0l20.08-20.082a1.302 1.302 0 0 0 0-1.84l-3.688-3.687a3.77 3.77 0 0 1-.277.31c-1.5 1.499-3.96 1.461-5.495-.074-1.535-1.536-1.573-3.996-.074-5.495a3.77 3.77 0 0 1 .31-.277l-3.783-3.783a1.295 1.295 0 0 0-1.842-.003L4.535 23.615a1.301 1.301 0 0 0 0 1.84l3.758 3.758z" opacity=".97"/>
        <path fill="#FFF" fill-rule="nonzero" d="M20.962 21.262L24.188 18l.722.73-3.216 3.252L25 25.232l-.712.741-3.316-3.26L17.722 26 17 25.27l3.24-3.277L17 18.806l.712-.74 3.25 3.196z"/>
    </g>
</svg>
