<svg xmlns="http://www.w3.org/2000/svg" width="58" height="58" viewBox="0 0 58 58">
    <g fill="none" fill-rule="evenodd" transform="translate(1 1)">
        <circle cx="28" cy="28" r="28" stroke="#FFF"/>
        <path fill="#FFF" d="M40.643 21.69l3.117 3.134c.875.88.43 1.637.147 1.97L26.99 43.663c-1.17 1.169-2.109.324-2.236.198l-3.15-3.167c-.713-.717-.12-1.82-.122-1.82a3.127 3.127 0 0 0-.669-3.398c-.959-.965-2.389-1.158-3.63-.572-.976.396-1.478-.15-1.478-.15l-3.294-3.31s-.87-.842.185-1.894l17.038-16.995c.204-.196 1.038-.9 1.807-.126l3.015 3.031c.172.18.753.891.335 2.004a3.126 3.126 0 0 0 .658 3.418 3.11 3.11 0 0 0 3.404.677s1.085-.579 1.79.13zm-8.86 9.812l-2.95-2.949 2.843-2.842-.933-.934L27.9 27.62l-2.948-2.949-.934.934 2.949 2.948-2.843 2.843.934.933 2.842-2.842 2.949 2.948.933-.933z"/>
    </g>
</svg>
